<svg width="58" height="93" viewBox="0 0 58 93" fill="none" xmlns="http://www.w3.org/2000/svg">
<g >
<path d="M4 58.8366C4.89028 68.8643 13.1013 75.9805 25.6013 76.9009V84.2156H31.8754V76.9009C45.5303 75.8241 54 68.2507 54 57.05C54 47.4856 48.3034 41.9514 36.2185 38.8354L31.8754 37.7105V14.84C38.6246 15.5017 43.1783 19.135 44.3272 24.5609H53.1699C52.1713 14.9362 43.9062 8.03056 31.8754 7.2666V0H25.6013V7.41699C13.9374 8.80053 5.93094 16.2717 5.93094 26.4016C5.93094 35.148 11.7418 41.3378 21.9379 43.9485L25.6073 44.923V69.1711C18.6956 68.1485 13.9374 64.3588 12.7885 58.8366H4ZM24.3982 35.7616C18.1242 34.1795 14.7736 30.7988 14.7736 26.0407C14.7736 20.3621 19.0084 16.1694 25.6013 15.0445V36.0683L24.3982 35.7676V35.7616ZM33.9687 47.0224C41.7105 48.9654 45.1092 52.1896 45.1092 57.6636C45.1092 64.2625 40.1405 68.6598 31.8754 69.3275V46.499L33.9687 47.0164V47.0224Z" fill="#F2CD85"/>
</g>
</svg>
