<svg width="70" height="70" viewBox="0 0 70 70" fill="none" xmlns="http://www.w3.org/2000/svg">
<path fill-rule="evenodd" clip-rule="evenodd" d="M62.2222 38.8889C64.285 38.8889 66.2633 39.7083 67.7219 41.1669C69.1806 42.6256 70 44.6039 70 46.6667V62.2222C70 64.285 69.1806 66.2633 67.7219 67.7219C66.2633 69.1806 64.285 70 62.2222 70C60.1594 70 58.1811 69.1806 56.7225 67.7219C55.2639 66.2633 54.4444 64.285 54.4444 62.2222V27.2222C54.4444 22.0652 52.3958 17.1195 48.7493 13.4729C45.1028 9.82638 40.157 7.77778 35 7.77778C29.843 7.77778 24.8972 9.82638 21.2507 13.4729C17.6042 17.1195 15.5556 22.0652 15.5556 27.2222V62.2222C15.5556 64.285 14.7361 66.2633 13.2775 67.7219C11.8189 69.1806 9.84057 70 7.77778 70C5.71498 70 3.73667 69.1806 2.27806 67.7219C0.819442 66.2633 0 64.285 0 62.2222V46.6667C0 44.6039 0.819442 42.6256 2.27806 41.1669C3.73667 39.7083 5.71498 38.8889 7.77778 38.8889V27.2222C7.77778 23.6473 8.4819 20.1075 9.84995 16.8047C11.218 13.502 13.2232 10.501 15.751 7.9732C18.2788 5.44539 21.2798 3.44021 24.5825 2.07217C27.8853 0.704123 31.4251 0 35 0C38.5749 0 42.1147 0.704123 45.4175 2.07217C48.7202 3.44021 51.7212 5.44539 54.249 7.9732C56.7768 10.501 58.782 13.502 60.1501 16.8047C61.5181 20.1075 62.2222 23.6473 62.2222 27.2222V38.8889Z" fill="#F2CD85"/>
</svg>
