<svg aria-hidden="true" style="position: absolute; width: 0; height: 0; overflow: hidden;" version="1.1" xmlns="http://www.w3.org/2000/svg" xmlns:xlink="http://www.w3.org/1999/xlink">
<defs>
<symbol id="icon-facebook" viewBox="0 0 32 32">
<path d="M0 16.089c0 7.955 5.777 14.569 13.333 15.911v-11.556h-4v-4.444h4v-3.556c0-4 2.577-6.221 6.223-6.221 1.155 0 2.4 0.177 3.555 0.355v4.089h-2.044c-1.956 0-2.4 0.977-2.4 2.223v3.111h4.267l-0.711 4.444h-3.556v11.556c7.556-1.341 13.333-7.955 13.333-15.911 0-8.849-7.2-16.089-16-16.089s-16 7.24-16 16.089z"></path>
</symbol>
<symbol id="icon-instagram" viewBox="0 0 32 32">
<path d="M15.996 10.664c-2.938 0-5.335 2.398-5.335 5.336s2.398 5.335 5.335 5.335c2.938 0 5.336-2.398 5.336-5.335s-2.398-5.336-5.336-5.336zM31.998 16c0-2.21 0.020-4.399-0.104-6.604-0.124-2.562-0.708-4.835-2.582-6.708-1.877-1.877-4.147-2.458-6.708-2.582-2.209-0.124-4.399-0.104-6.604-0.104-2.21 0-4.399-0.020-6.604 0.104-2.562 0.124-4.835 0.708-6.708 2.582-1.877 1.877-2.458 4.147-2.582 6.708-0.124 2.209-0.104 4.399-0.104 6.604s-0.020 4.399 0.104 6.604c0.124 2.562 0.708 4.835 2.582 6.708 1.877 1.877 4.147 2.458 6.708 2.582 2.209 0.124 4.399 0.104 6.604 0.104 2.209 0 4.399 0.020 6.604-0.104 2.562-0.124 4.835-0.708 6.708-2.582 1.877-1.877 2.458-4.147 2.582-6.708 0.128-2.205 0.104-4.395 0.104-6.604zM15.996 24.209c-4.543 0-8.209-3.666-8.209-8.209s3.666-8.209 8.209-8.209c4.543 0 8.209 3.666 8.209 8.209s-3.666 8.209-8.209 8.209zM24.541 9.371c-1.061 0-1.917-0.857-1.917-1.917s0.857-1.917 1.917-1.917c1.061 0 1.917 0.857 1.917 1.917 0 0.252-0.049 0.501-0.145 0.734s-0.237 0.444-0.416 0.622-0.39 0.319-0.622 0.416c-0.233 0.096-0.482 0.146-0.734 0.145z"></path>
</symbol>
<symbol id="icon-logo-large" viewBox="0 0 54 32">
<path fill="#222" style="fill: var(--color1, #222)" d="M8.178 27.259l-6.281 4.504c0 0.379 0.632 0.158 0.948 0l7.111-3.437c1.264 0.988 4.006 3.058 4.859 3.437s0.909 0.158 0.83 0l-4.504-4.504c-0.277-0.316-0.901-0.948-1.185-0.948s-1.304 0.632-1.778 0.948z"></path>
<path fill="#f2cd85" style="fill: var(--color2, #f2cd85)" d="M21.996 21.996c0.702 0.702 0.708 1.852-0.080 2.456-1.080 0.827-2.281 1.49-3.563 1.964-1.846 0.682-3.818 0.956-5.781 0.803s-3.868-0.729-5.587-1.688-3.209-2.28-4.368-3.87c-1.16-1.59-1.961-3.413-2.349-5.343s-0.354-3.92 0.101-5.835c0.455-1.915 1.319-3.709 2.533-5.258 0.843-1.076 1.841-2.017 2.959-2.792 0.816-0.566 1.909-0.209 2.362 0.675s0.093 1.956-0.696 2.56c-0.669 0.513-1.272 1.109-1.795 1.776-0.894 1.14-1.53 2.461-1.864 3.871s-0.36 2.875-0.074 4.296c0.286 1.42 0.876 2.762 1.729 3.933s1.951 2.143 3.216 2.849c1.265 0.706 2.668 1.13 4.113 1.243s2.896-0.089 4.255-0.591c0.795-0.294 1.547-0.686 2.24-1.166 0.816-0.566 1.948-0.582 2.65 0.12z"></path>
<path fill="#222" style="fill: var(--color1, #222)" d="M19.124 21.111c0.038 0.248-0.067 0.497-0.278 0.632-1.289 0.822-2.759 1.321-4.285 1.452-1.663 0.143-3.334-0.155-4.845-0.865s-2.807-1.805-3.758-3.177c-0.815-1.175-1.352-2.516-1.575-3.922-0.065-0.408 0.209-0.784 0.609-0.885 0.506-0.127 1.021 0.236 1.236 0.711 0.43 0.951 1.262 1.916 1.785 2.67 0.7 1.009 1.655 1.816 2.767 2.339s2.342 0.742 3.566 0.637c0.917-0.079 2.485-0.002 3.638-0.254 0.476-0.104 1.066 0.18 1.14 0.662z"></path>
<path fill="#222" style="fill: var(--color1, #222)" d="M15.597 11.688c0-0.261-0.116-0.415-0.348-0.462v-0.156c0.512-0.284 0.77-0.427 0.775-0.427 0.043 0 0.119 0.047 0.228 0.142 0.109 0.090 0.175 0.187 0.199 0.292 0.009-0.009 0.154-0.083 0.434-0.22 0.28-0.142 0.422-0.213 0.427-0.213 0.095 0 0.199 0.057 0.313 0.171 0.218 0.218 0.327 0.51 0.327 0.875v3.769c0 0.043-0.254 0.164-0.761 0.363s-0.823 0.299-0.946 0.299c-0.223 0-0.408-0.147-0.555-0.441-0.521 0.294-0.851 0.441-0.988 0.441s-0.273-0.1-0.405-0.299c-0.128-0.204-0.192-0.391-0.192-0.562v-3.57c0-0.261-0.116-0.415-0.348-0.462v-0.156l0.775-0.434c0.104 0.043 0.201 0.114 0.292 0.213 0.090 0.095 0.135 0.183 0.135 0.263v3.62c0 0.45 0.14 0.676 0.42 0.676 0.071 0 0.145-0.014 0.22-0.043v-3.676zM16.457 14.803c0 0.152 0.028 0.294 0.085 0.427 0.062 0.128 0.145 0.192 0.249 0.192s0.204-0.021 0.299-0.064v-3.413c0-0.247-0.050-0.41-0.149-0.491-0.1-0.085-0.261-0.13-0.484-0.135v3.484zM18.659 15.080v-2.361c0-0.033 0.27-0.149 0.811-0.348 0.54-0.204 0.851-0.306 0.932-0.306s0.201 0.097 0.363 0.292c0.166 0.194 0.249 0.37 0.249 0.526v2.574c0 0.038-0.261 0.159-0.782 0.363-0.517 0.199-0.834 0.299-0.953 0.299-0.114 0-0.247-0.102-0.398-0.306-0.147-0.204-0.22-0.448-0.22-0.732zM19.875 15.464c0.090 0 0.183-0.038 0.277-0.114v-2.098c0-0.351-0.121-0.526-0.363-0.526-0.095 0-0.187 0.036-0.277 0.107v2.105c0 0.351 0.121 0.526 0.363 0.526zM21.722 15.080v-2.361c0-0.033 0.27-0.149 0.811-0.348 0.54-0.204 0.851-0.306 0.932-0.306s0.201 0.097 0.363 0.292c0.166 0.194 0.249 0.37 0.249 0.526v2.574c0 0.038-0.261 0.159-0.782 0.363-0.517 0.199-0.834 0.299-0.953 0.299-0.114 0-0.247-0.102-0.398-0.306-0.147-0.204-0.22-0.448-0.22-0.732zM22.938 15.464c0.090 0 0.183-0.038 0.277-0.114v-2.098c0-0.351-0.121-0.526-0.363-0.526-0.095 0-0.187 0.036-0.277 0.107v2.105c0 0.351 0.121 0.526 0.363 0.526zM26.121 10.643c0.128 0 0.329 0.311 0.604 0.932s0.412 1.050 0.412 1.287v2.169c0 0.109 0.028 0.216 0.085 0.32 0.062 0.104 0.147 0.164 0.256 0.178v0.156c-0.033 0.005-0.292 0.149-0.775 0.434-0.109-0.047-0.209-0.116-0.299-0.206-0.085-0.095-0.128-0.183-0.128-0.263-0.507 0.313-0.804 0.469-0.889 0.469-0.033 0-0.097-0.036-0.192-0.107-0.090-0.076-0.183-0.183-0.277-0.32-0.090-0.142-0.135-0.287-0.135-0.434v-2.539c0-0.047 0.401-0.211 1.202-0.491-0.171-0.375-0.308-0.638-0.412-0.789s-0.206-0.228-0.306-0.228h-0.235v-0.213c0.526-0.237 0.889-0.356 1.088-0.356zM26 15.464c0.090 0 0.183-0.038 0.277-0.114v-2.475c0-0.028-0.021-0.088-0.064-0.178-0.038-0.095-0.066-0.142-0.085-0.142-0.137 0-0.277 0.043-0.42 0.128l-0.071 0.043v2.212c0 0.351 0.121 0.526 0.363 0.526zM28.693 12.549v2.517c0 0.289 0.097 0.453 0.292 0.491v0.156l-0.718 0.405c-0.104-0.043-0.201-0.111-0.292-0.206-0.090-0.1-0.135-0.192-0.135-0.277v-2.517c0-0.289-0.097-0.453-0.292-0.491v-0.156l0.718-0.405c0.104 0.043 0.201 0.114 0.292 0.213 0.090 0.095 0.135 0.185 0.135 0.27zM27.733 11.176v-0.434c0-0.014 0.097-0.057 0.292-0.128 0.199-0.076 0.313-0.114 0.341-0.114 0.033 0 0.078 0.040 0.135 0.121 0.062 0.081 0.092 0.164 0.092 0.249v0.519c0 0.014-0.095 0.059-0.284 0.135-0.19 0.071-0.306 0.107-0.348 0.107s-0.092-0.040-0.149-0.121c-0.052-0.085-0.078-0.197-0.078-0.334zM31.145 12.065c0.024 0 0.083 0.038 0.178 0.114 0.095 0.071 0.19 0.173 0.284 0.306 0.095 0.128 0.142 0.254 0.142 0.377v1.195c0 0.085-0.126 0.19-0.377 0.313s-0.495 0.225-0.732 0.306c-0.232 0.076-0.358 0.114-0.377 0.114 0 0.365 0.159 0.59 0.476 0.676 0.156 0.038 0.344 0.057 0.562 0.057v0.206c-0.777 0.261-1.192 0.391-1.244 0.391-0.142 0-0.287-0.1-0.434-0.299-0.147-0.204-0.22-0.441-0.22-0.711v-2.389c0-0.033 0.27-0.149 0.811-0.348 0.54-0.204 0.851-0.306 0.932-0.306zM30.896 13.196c0-0.133-0.031-0.244-0.092-0.334-0.062-0.095-0.14-0.142-0.235-0.142s-0.199 0.036-0.313 0.107v1.643c0.427-0.119 0.64-0.375 0.64-0.768v-0.505zM34.759 11.333c-0.047 0-0.090 0.024-0.128 0.071v1.934h0.932v0.171l-0.356 0.178h-0.576v1.337c0 0.175 0.019 0.301 0.057 0.377s0.116 0.114 0.235 0.114v0.22l-1.458 0.612-0.114-0.228c0.104 0 0.204-0.062 0.299-0.185 0.085-0.119 0.128-0.299 0.128-0.54v-4.096c0-0.033 0.27-0.149 0.811-0.348 0.545-0.204 0.858-0.306 0.939-0.306 0.028 0 0.062 0.069 0.1 0.206s0.081 0.303 0.128 0.498c0.052 0.194 0.104 0.339 0.156 0.434 0.057 0.090 0.161 0.135 0.313 0.135v0.142c-0.104 0.047-0.282 0.133-0.533 0.256-0.247 0.119-0.379 0.178-0.398 0.178-0.071 0-0.161-0.192-0.27-0.576-0.109-0.389-0.197-0.583-0.263-0.583zM37.124 15.009c0 0.123 0.036 0.225 0.107 0.306 0.076 0.076 0.159 0.114 0.249 0.114s0.185-0.036 0.284-0.107v-2.212c0-0.289-0.097-0.453-0.292-0.491v-0.156l0.718-0.405c0.104 0.043 0.201 0.114 0.292 0.213 0.090 0.095 0.135 0.185 0.135 0.27v2.411c0 0.156 0.033 0.292 0.1 0.405s0.149 0.171 0.249 0.171v0.156c-0.033 0.005-0.292 0.149-0.775 0.434-0.109-0.047-0.209-0.116-0.299-0.206-0.085-0.095-0.128-0.185-0.128-0.27l-0.889 0.476c-0.014-0.009-0.036-0.021-0.064-0.036-0.028-0.019-0.078-0.055-0.149-0.107-0.066-0.057-0.126-0.116-0.178-0.178-0.142-0.156-0.213-0.334-0.213-0.533v-2.155c0-0.261-0.116-0.415-0.348-0.462v-0.156l0.775-0.434c0.104 0.043 0.201 0.114 0.292 0.213 0.090 0.095 0.135 0.185 0.135 0.27v2.468zM39.326 15.635v-2.411c0-0.156-0.033-0.292-0.1-0.405s-0.149-0.171-0.249-0.171v-0.156c0.033-0.005 0.292-0.149 0.775-0.434 0.033 0.009 0.073 0.024 0.121 0.043 0.047 0.014 0.109 0.059 0.185 0.135 0.081 0.076 0.121 0.164 0.121 0.263 0.028-0.014 0.109-0.059 0.242-0.135 0.351-0.199 0.559-0.299 0.626-0.299 0.152 0 0.294 0.1 0.427 0.299s0.199 0.382 0.199 0.548v2.155c0 0.261 0.116 0.415 0.348 0.462v0.156l-0.775 0.434c-0.104-0.043-0.201-0.111-0.292-0.206-0.090-0.1-0.135-0.192-0.135-0.277v-2.062c0-0.265-0.031-0.467-0.092-0.604-0.057-0.142-0.161-0.213-0.313-0.213l-0.235 0.043v2.268c0 0.289 0.097 0.453 0.292 0.491v0.156l-0.718 0.405c-0.104-0.043-0.201-0.111-0.292-0.206-0.090-0.1-0.135-0.192-0.135-0.277zM43.235 12.549v2.517c0 0.289 0.097 0.453 0.292 0.491v0.156l-0.718 0.405c-0.104-0.043-0.201-0.111-0.292-0.206-0.090-0.1-0.135-0.192-0.135-0.277v-2.517c0-0.289-0.097-0.453-0.292-0.491v-0.156l0.718-0.405c0.104 0.043 0.201 0.114 0.292 0.213 0.090 0.095 0.135 0.185 0.135 0.27zM42.275 11.176v-0.434c0-0.014 0.097-0.057 0.292-0.128 0.199-0.076 0.313-0.114 0.341-0.114 0.033 0 0.078 0.040 0.135 0.121 0.062 0.081 0.092 0.164 0.092 0.249v0.519c0 0.014-0.095 0.059-0.284 0.135-0.19 0.071-0.306 0.107-0.348 0.107s-0.092-0.040-0.149-0.121c-0.052-0.085-0.078-0.197-0.078-0.334zM44.797 11.326v0.846h0.363l-0.071 0.348h-0.292v2.546c0 0.289 0.097 0.453 0.292 0.491v0.156l-0.718 0.405c-0.104-0.043-0.201-0.111-0.292-0.206-0.090-0.1-0.135-0.192-0.135-0.277v-3.108h-0.292l0.071-0.299c0.142 0 0.313-0.095 0.512-0.284 0.204-0.194 0.325-0.401 0.363-0.619h0.199zM46.36 15.009c0 0.123 0.036 0.225 0.107 0.306 0.076 0.076 0.159 0.114 0.249 0.114s0.185-0.036 0.284-0.107v-2.212c0-0.289-0.097-0.453-0.292-0.491v-0.156l0.718-0.405c0.104 0.043 0.201 0.114 0.292 0.213 0.090 0.095 0.135 0.185 0.135 0.27v2.411c0 0.156 0.033 0.292 0.1 0.405s0.149 0.171 0.249 0.171v0.156c-0.033 0.005-0.292 0.149-0.775 0.434-0.109-0.047-0.209-0.116-0.299-0.206-0.085-0.095-0.128-0.185-0.128-0.27l-0.889 0.476c-0.014-0.009-0.036-0.021-0.064-0.036-0.028-0.019-0.078-0.055-0.149-0.107-0.066-0.057-0.126-0.116-0.178-0.178-0.142-0.156-0.213-0.334-0.213-0.533v-2.155c0-0.261-0.116-0.415-0.348-0.462v-0.156l0.775-0.434c0.104 0.043 0.201 0.114 0.292 0.213 0.090 0.095 0.135 0.185 0.135 0.27v2.468zM48.214 12.492l0.782-0.427c0.033 0.009 0.071 0.024 0.114 0.043 0.047 0.014 0.109 0.059 0.185 0.135 0.081 0.076 0.121 0.161 0.121 0.256 0.024-0.009 0.135-0.083 0.334-0.22 0.204-0.142 0.334-0.213 0.391-0.213 0.152 0 0.294 0.1 0.427 0.299s0.199 0.382 0.199 0.548v0.348l-0.732 0.412-0.121-0.1c0-0.398-0.038-0.626-0.114-0.683-0.085-0.062-0.213-0.092-0.384-0.092v2.268c0 0.289 0.097 0.453 0.292 0.491v0.156l-0.718 0.405c-0.104-0.043-0.201-0.111-0.292-0.206-0.090-0.1-0.135-0.192-0.135-0.277v-2.361c0-0.209-0.038-0.365-0.114-0.469-0.071-0.104-0.149-0.156-0.235-0.156v-0.156zM53.006 12.065c0.024 0 0.083 0.038 0.178 0.114 0.095 0.071 0.19 0.173 0.284 0.306 0.095 0.128 0.142 0.254 0.142 0.377v1.195c0 0.085-0.126 0.19-0.377 0.313s-0.495 0.225-0.732 0.306c-0.232 0.076-0.358 0.114-0.377 0.114 0 0.365 0.159 0.59 0.476 0.676 0.156 0.038 0.344 0.057 0.562 0.057v0.206c-0.777 0.261-1.192 0.391-1.244 0.391-0.142 0-0.287-0.1-0.434-0.299-0.147-0.204-0.22-0.441-0.22-0.711v-2.389c0-0.033 0.27-0.149 0.811-0.348 0.54-0.204 0.851-0.306 0.932-0.306zM52.757 13.196c0-0.133-0.031-0.244-0.092-0.334-0.062-0.095-0.14-0.142-0.235-0.142s-0.199 0.036-0.313 0.107v1.643c0.427-0.119 0.64-0.375 0.64-0.768v-0.505z"></path>
</symbol>
<symbol id="icon-mail" viewBox="0 0 41 32">
<path fill="#dddad4" style="fill: var(--color3, #dddad4)" d="M39.225 0h-37.772c-0.804 0-1.453 0.646-1.453 1.447v28.931c0 0.8 0.649 1.447 1.453 1.447h37.772c0.804 0 1.453-0.646 1.453-1.447v-28.931c0-0.8-0.649-1.447-1.453-1.447zM37.409 5.009v23.561h-34.14v-23.561l-1.253-0.972 1.784-2.283 1.943 1.505h29.196l1.943-1.505 1.784 2.283-1.258 0.972zM34.939 3.255l-14.6 11.301-16.544-12.807-1.784 2.283 1.253 0.972 15.508 12.007c0.446 0.345 0.995 0.532 1.559 0.532s1.113-0.187 1.559-0.532l16.771-12.974-1.784-2.283-1.939 1.501z"></path>
</symbol>
<symbol id="icon-twitter" viewBox="0 0 32 32">
<path d="M16 0c-8.836 0-16 7.164-16 16s7.164 16 16 16c8.836 0 16-7.164 16-16s-7.164-16-16-16zM23.689 12.061c0.011 0.168 0.011 0.343 0.011 0.514 0 5.243-3.993 11.282-11.289 11.282-2.25 0-4.336-0.654-6.093-1.779 0.321 0.036 0.629 0.050 0.957 0.050 1.857 0 3.564-0.628 4.925-1.693-1.743-0.036-3.207-1.179-3.707-2.75 0.611 0.089 1.161 0.089 1.789-0.071-0.897-0.182-1.704-0.67-2.283-1.379s-0.894-1.598-0.892-2.513v-0.050c0.525 0.296 1.143 0.479 1.789 0.504-0.543-0.362-0.989-0.853-1.297-1.428s-0.47-1.219-0.47-1.872c0-0.739 0.193-1.414 0.539-2 0.996 1.226 2.239 2.229 3.648 2.943s2.953 1.124 4.53 1.203c-0.561-2.696 1.454-4.879 3.875-4.879 1.143 0 2.171 0.479 2.896 1.25 0.896-0.168 1.754-0.504 2.518-0.954-0.296 0.918-0.918 1.693-1.743 2.182 0.8-0.086 1.571-0.307 2.286-0.618-0.539 0.793-1.214 1.496-1.989 2.057z"></path>
</symbol>
<symbol id="icon-whatsapp" viewBox="0 0 32 32">
<path d="M29.607 7.379c-4.787-7.38-14.56-9.574-22.139-4.986-7.38 4.587-9.773 14.56-4.986 21.939l0.399 0.598-1.596 5.983 5.983-1.596 0.598 0.399c2.593 1.396 5.385 2.194 8.177 2.194 2.992 0 5.984-0.798 8.576-2.393 7.38-4.787 9.574-14.56 4.986-22.139zM25.418 22.737c-0.798 1.197-1.795 1.994-3.191 2.194-0.798 0-1.795 0.399-5.784-1.197-3.391-1.596-6.183-4.189-8.178-7.18-1.197-1.396-1.795-3.191-1.995-4.986 0-1.596 0.598-2.992 1.596-3.989 0.399-0.399 0.798-0.598 1.197-0.598h0.997c0.399 0 0.798 0 0.997 0.798 0.399 0.997 1.396 3.391 1.396 3.59 0.199 0.199 0.199 0.598 0 0.798 0.199 0.399 0 0.798-0.199 0.997s-0.399 0.598-0.598 0.798c-0.399 0.199-0.598 0.598-0.399 0.997 0.798 1.197 1.795 2.393 2.792 3.391 1.197 0.997 2.393 1.795 3.79 2.393 0.399 0.199 0.798 0.199 0.997-0.2s1.197-1.396 1.596-1.795c0.399-0.399 0.598-0.399 0.997-0.199l3.191 1.596c0.399 0.199 0.798 0.399 0.997 0.598 0.2 0.598 0.2 1.396-0.199 1.994z"></path>
</symbol>
<symbol id="icon-youtube" viewBox="0 0 32 32">
<path d="M18.672 15.722l-3.743-1.747c-0.327-0.152-0.595 0.018-0.595 0.38v3.29c0 0.362 0.268 0.532 0.595 0.38l3.742-1.747c0.328-0.153 0.328-0.403 0.002-0.557zM16 0c-8.837 0-16 7.163-16 16s7.163 16 16 16c8.837 0 16-7.163 16-16s-7.163-16-16-16zM16 22.5c-8.19 0-8.333-0.738-8.333-6.5s0.143-6.5 8.333-6.5c8.19 0 8.333 0.738 8.333 6.5s-0.143 6.5-8.333 6.5z"></path>
</symbol>
<symbol id='icon-heart' viewBox="0 -28 512.001 512">
<path d="m256 455.515625c-7.289062 0-14.316406-2.640625-19.792969-7.4375-20.683593-18.085937-40.625-35.082031-58.21875-50.074219l-.089843-.078125c-51.582032-43.957031-96.125-81.917969-127.117188-119.3125-34.644531-41.804687-50.78125-81.441406-50.78125-124.742187 0-42.070313 14.425781-80.882813 40.617188-109.292969 26.503906-28.746094 62.871093-44.578125 102.414062-44.578125 29.554688 0 56.621094 9.34375 80.445312 27.769531 12.023438 9.300781 22.921876 20.683594 32.523438 33.960938 9.605469-13.277344 20.5-24.660157 32.527344-33.960938 23.824218-18.425781 50.890625-27.769531 80.445312-27.769531 39.539063 0 75.910156 15.832031 102.414063 44.578125 26.191406 28.410156 40.613281 67.222656 40.613281 109.292969 0 43.300781-16.132812 82.9375-50.777344 124.738281-30.992187 37.398437-75.53125 75.355469-127.105468 119.308594-17.625 15.015625-37.597657 32.039062-58.328126 50.167969-5.472656 4.789062-12.503906 7.429687-19.789062 7.429687zm-112.96875-425.523437c-31.066406 0-59.605469 12.398437-80.367188 34.914062-21.070312 22.855469-32.675781 54.449219-32.675781 88.964844 0 36.417968 13.535157 68.988281 43.882813 105.605468 29.332031 35.394532 72.960937 72.574219 123.476562 115.625l.09375.078126c17.660156 15.050781 37.679688 32.113281 58.515625 50.332031 20.960938-18.253907 41.011719-35.34375 58.707031-50.417969 50.511719-43.050781 94.136719-80.222656 123.46875-115.617188 30.34375-36.617187 43.878907-69.1875 43.878907-105.605468 0-34.515625-11.605469-66.109375-32.675781-88.964844-20.757813-22.515625-49.300782-34.914062-80.363282-34.914062-22.757812 0-43.652344 7.234374-62.101562 21.5-16.441406 12.71875-27.894532 28.796874-34.609375 40.046874-3.453125 5.785157-9.53125 9.238282-16.261719 9.238282s-12.808594-3.453125-16.261719-9.238282c-6.710937-11.25-18.164062-27.328124-34.609375-40.046874-18.449218-14.265626-39.34375-21.5-62.097656-21.5zm0 0"/>
</symbol>
<symbol id='icon-user' viewBox="0 0 512 512">
<path d="m437.019531 74.980469c-48.351562-48.351563-112.640625-74.980469-181.019531-74.980469-68.382812 0-132.667969 26.628906-181.019531 74.980469-48.351563 48.351562-74.980469 112.636719-74.980469 181.019531 0 68.378906 26.628906 132.667969 74.980469 181.019531 48.351562 48.351563 112.636719 74.980469 181.019531 74.980469 68.378906 0 132.667969-26.628906 181.019531-74.980469 48.351563-48.351562 74.980469-112.640625 74.980469-181.019531 0-68.382812-26.628906-132.667969-74.980469-181.019531zm-308.679687 367.40625c10.707031-61.648438 64.128906-107.121094 127.660156-107.121094 63.535156 0 116.953125 45.472656 127.660156 107.121094-36.347656 24.972656-80.324218 39.613281-127.660156 39.613281s-91.3125-14.640625-127.660156-39.613281zm46.261718-218.519531c0-44.886719 36.515626-81.398438 81.398438-81.398438s81.398438 36.515625 81.398438 81.398438c0 44.882812-36.515626 81.398437-81.398438 81.398437s-81.398438-36.515625-81.398438-81.398437zm235.042969 197.710937c-8.074219-28.699219-24.109375-54.738281-46.585937-75.078125-13.789063-12.480469-29.484375-22.328125-46.359375-29.269531 30.5-19.894531 50.703125-54.3125 50.703125-93.363281 0-61.425782-49.976563-111.398438-111.402344-111.398438s-111.398438 49.972656-111.398438 111.398438c0 39.050781 20.203126 73.46875 50.699219 93.363281-16.871093 6.941406-32.570312 16.785156-46.359375 29.265625-22.472656 20.339844-38.511718 46.378906-46.585937 75.078125-44.472657-41.300781-72.355469-100.238281-72.355469-165.574219 0-124.617188 101.382812-226 226-226s226 101.382812 226 226c0 65.339844-27.882812 124.277344-72.355469 165.578125zm0 0"/></symbol>
<symbol id='icon-cart' viewBox="0 0 512 512">
<g><path d="M509.867,89.6c-2.133-2.133-4.267-4.267-8.533-4.267H96L85.333,29.867c0-4.267-6.4-8.533-10.667-8.533h-64
			C4.267,21.333,0,25.6,0,32c0,6.4,4.267,10.667,10.667,10.667h55.467l51.2,260.267c6.4,34.133,38.4,59.733,72.533,59.733H435.2
			c6.4,0,10.667-4.267,10.667-10.667c0-6.4-4.267-10.667-10.667-10.667H192c-17.067,0-34.133-8.533-42.667-23.467L460.8,275.2
			c4.267,0,8.533-4.267,8.533-8.533L512,96C512,96,512,91.733,509.867,89.6z M450.133,256l-311.467,40.533l-38.4-192H486.4
			L450.133,256z"/></g><g><path d="M181.333,384C151.467,384,128,407.467,128,437.333c0,29.867,23.467,53.333,53.333,53.333
			c29.867,0,53.333-23.467,53.333-53.333C234.667,407.467,211.2,384,181.333,384z M181.333,469.333c-17.067,0-32-14.934-32-32
			s14.933-32,32-32c17.067,0,32,14.934,32,32S198.4,469.333,181.333,469.333z"/></g><g><path d="M394.667,384c-29.867,0-53.333,23.467-53.333,53.333c0,29.867,23.467,53.333,53.333,53.333
			c29.867,0,53.333-23.467,53.333-53.333C448,407.467,424.533,384,394.667,384z M394.667,469.333c-17.067,0-32-14.934-32-32
			s14.933-32,32-32c17.067,0,32,14.934,32,32S411.733,469.333,394.667,469.333z"/></g>
</symbol>
<symbol id='icon-dollar' viewBox="0 0 58 93">
<g >
<path d="M4 58.8366C4.89028 68.8643 13.1013 75.9805 25.6013 76.9009V84.2156H31.8754V76.9009C45.5303 75.8241 54 68.2507 54 57.05C54 47.4856 48.3034 41.9514 36.2185 38.8354L31.8754 37.7105V14.84C38.6246 15.5017 43.1783 19.135 44.3272 24.5609H53.1699C52.1713 14.9362 43.9062 8.03056 31.8754 7.2666V0H25.6013V7.41699C13.9374 8.80053 5.93094 16.2717 5.93094 26.4016C5.93094 35.148 11.7418 41.3378 21.9379 43.9485L25.6073 44.923V69.1711C18.6956 68.1485 13.9374 64.3588 12.7885 58.8366H4ZM24.3982 35.7616C18.1242 34.1795 14.7736 30.7988 14.7736 26.0407C14.7736 20.3621 19.0084 16.1694 25.6013 15.0445V36.0683L24.3982 35.7676V35.7616ZM33.9687 47.0224C41.7105 48.9654 45.1092 52.1896 45.1092 57.6636C45.1092 64.2625 40.1405 68.6598 31.8754 69.3275V46.499L33.9687 47.0164V47.0224Z" fill="#F2CD85"/>
</g>
</symbol>
<symbol id='icon-headphone' viewBox="0 0 70 70">
<path fill-rule="evenodd" clip-rule="evenodd" d="M62.2222 38.8889C64.285 38.8889 66.2633 39.7083 67.7219 41.1669C69.1806 42.6256 70 44.6039 70 46.6667V62.2222C70 64.285 69.1806 66.2633 67.7219 67.7219C66.2633 69.1806 64.285 70 62.2222 70C60.1594 70 58.1811 69.1806 56.7225 67.7219C55.2639 66.2633 54.4444 64.285 54.4444 62.2222V27.2222C54.4444 22.0652 52.3958 17.1195 48.7493 13.4729C45.1028 9.82638 40.157 7.77778 35 7.77778C29.843 7.77778 24.8972 9.82638 21.2507 13.4729C17.6042 17.1195 15.5556 22.0652 15.5556 27.2222V62.2222C15.5556 64.285 14.7361 66.2633 13.2775 67.7219C11.8189 69.1806 9.84057 70 7.77778 70C5.71498 70 3.73667 69.1806 2.27806 67.7219C0.819442 66.2633 0 64.285 0 62.2222V46.6667C0 44.6039 0.819442 42.6256 2.27806 41.1669C3.73667 39.7083 5.71498 38.8889 7.77778 38.8889V27.2222C7.77778 23.6473 8.4819 20.1075 9.84995 16.8047C11.218 13.502 13.2232 10.501 15.751 7.9732C18.2788 5.44539 21.2798 3.44021 24.5825 2.07217C27.8853 0.704123 31.4251 0 35 0C38.5749 0 42.1147 0.704123 45.4175 2.07217C48.7202 3.44021 51.7212 5.44539 54.249 7.9732C56.7768 10.501 58.782 13.502 60.1501 16.8047C61.5181 20.1075 62.2222 23.6473 62.2222 27.2222V38.8889Z" fill="#F2CD85"/>
</symbol>
<symbol id='icon-mail' viewBox="0 0 100 79">
<g fill="#F2CD85">
<path d="M96.4286 0H3.57143C1.59598 0 0 1.58915 0 3.55615V74.6791C0 76.6461 1.59598 78.2353 3.57143 78.2353H96.4286C98.404 78.2353 100 76.6461 100 74.6791V3.55615C100 1.58915 98.404 0 96.4286 0ZM91.9643 12.3132V70.234H8.03571V12.3132L4.95536 9.92388L9.34152 4.31183L14.1183 8.01245H85.8929L90.6696 4.31183L95.0558 9.92388L91.9643 12.3132ZM85.8929 8.00134L50 35.7838L14.1071 8.00134L9.33036 4.30072L4.9442 9.91277L8.02455 12.3021L46.1496 41.8181C47.246 42.6662 48.5948 43.1267 49.9833 43.1267C51.3717 43.1267 52.7205 42.6662 53.817 41.8181L91.9643 12.3132L95.0446 9.92388L90.6585 4.31183L85.8929 8.00134Z"/>
</g>
</symbol>
<symbol id='icon-truck' viewBox="0 0 100 79">
<path d="M99.7143 37.8929L89 12.8929C88.7266 12.2473 88.2692 11.6965 87.685 11.3091C87.1007 10.9217 86.4153 10.7149 85.7143 10.7143H75V3.57143C75 2.62423 74.6237 1.71582 73.954 1.04605C73.2842 0.376275 72.3758 0 71.4286 0H3.57143C2.62423 0 1.71582 0.376275 1.04605 1.04605C0.376274 1.71582 0 2.62423 0 3.57143V64.2857C0 65.2329 0.376274 66.1413 1.04605 66.8111C1.71582 67.4809 2.62423 67.8571 3.57143 67.8571H11.2143C12.0367 70.8835 13.8321 73.5551 16.3236 75.4598C18.815 77.3645 21.8639 78.3964 25 78.3964C28.1361 78.3964 31.185 77.3645 33.6764 75.4598C36.1679 73.5551 37.9633 70.8835 38.7857 67.8571H61.2143C62.0367 70.8835 63.8321 73.5551 66.3236 75.4598C68.815 77.3645 71.8639 78.3964 75 78.3964C78.1361 78.3964 81.185 77.3645 83.6764 75.4598C86.1678 73.5551 87.9633 70.8835 88.7857 67.8571H96.4286C97.3758 67.8571 98.2842 67.4809 98.954 66.8111C99.6237 66.1413 100 65.2329 100 64.2857V39.2857C99.9991 38.807 99.9019 38.3333 99.7143 37.8929ZM75 17.8571H83.3571L91 35.7143H75V17.8571ZM25 71.4286C23.5873 71.4286 22.2063 71.0097 21.0316 70.2248C19.857 69.4399 18.9415 68.3244 18.4009 67.0192C17.8602 65.714 17.7188 64.2778 17.9944 62.8922C18.27 61.5066 18.9503 60.2339 19.9492 59.235C20.9482 58.236 22.2209 57.5557 23.6065 57.2801C24.9921 57.0045 26.4283 57.1459 27.7335 57.6866C29.0386 58.2272 30.1542 59.1427 30.9391 60.3174C31.7239 61.492 32.1429 62.873 32.1429 64.2857C32.1429 66.1801 31.3903 67.9969 30.0508 69.3365C28.7112 70.676 26.8944 71.4286 25 71.4286ZM61.2143 60.7143H38.7857C37.9633 57.688 36.1679 55.0164 33.6764 53.1117C31.185 51.207 28.1361 50.175 25 50.175C21.8639 50.175 18.815 51.207 16.3236 53.1117C13.8321 55.0164 12.0367 57.688 11.2143 60.7143H7.14286V7.14286H67.8571V52C66.2309 52.9439 64.8069 54.1995 63.667 55.6949C62.5271 57.1903 61.6936 58.8961 61.2143 60.7143ZM75 71.4286C73.5873 71.4286 72.2063 71.0097 71.0316 70.2248C69.857 69.4399 68.9415 68.3244 68.4009 67.0192C67.8602 65.714 67.7188 64.2778 67.9944 62.8922C68.27 61.5066 68.9503 60.2339 69.9492 59.235C70.9482 58.236 72.2209 57.5557 73.6065 57.2801C74.9921 57.0045 76.4283 57.1459 77.7335 57.6866C79.0386 58.2272 80.1542 59.1427 80.9391 60.3174C81.7239 61.492 82.1429 62.873 82.1429 64.2857C82.1429 66.1801 81.3903 67.9969 80.0508 69.3365C78.7112 70.676 76.8944 71.4286 75 71.4286ZM92.8571 60.7143H88.7857C87.9959 57.6554 86.2145 54.9447 83.7201 53.006C81.2258 51.0674 78.1591 50.0103 75 50V42.8571H92.8571V60.7143Z" fill="#F2CD85"/>
</symbol>
</defs>
</svg>
