<svg width="100" height="79" viewBox="0 0 100 79" fill="none" xmlns="http://www.w3.org/2000/svg">
<path d="M96.4286 0H3.57143C1.59598 0 0 1.58915 0 3.55615V74.6791C0 76.6461 1.59598 78.2353 3.57143 78.2353H96.4286C98.404 78.2353 100 76.6461 100 74.6791V3.55615C100 1.58915 98.404 0 96.4286 0ZM91.9643 12.3132V70.234H8.03571V12.3132L4.95536 9.92388L9.34152 4.31183L14.1183 8.01245H85.8929L90.6696 4.31183L95.0558 9.92388L91.9643 12.3132ZM85.8929 8.00134L50 35.7838L14.1071 8.00134L9.33036 4.30072L4.9442 9.91277L8.02455 12.3021L46.1496 41.8181C47.246 42.6662 48.5948 43.1267 49.9833 43.1267C51.3717 43.1267 52.7205 42.6662 53.817 41.8181L91.9643 12.3132L95.0446 9.92388L90.6585 4.31183L85.8929 8.00134Z" fill="#F2CD85"/>
</svg>
