<svg width="18" height="17" viewBox="0 0 18 17" fill="none" xmlns="http://www.w3.org/2000/svg">
<path d="M8.30562 1.47473C8.54561 0.841757 9.45382 0.841757 9.69456 1.47473L11.247 5.77504C11.3557 6.06003 11.6325 6.24977 11.9415 6.24977H15.7565C16.4615 6.24977 16.769 7.12723 16.2148 7.55696L13.4999 9.9996C13.3783 10.0931 13.2894 10.2227 13.246 10.3698C13.2026 10.517 13.207 10.6741 13.2584 10.8186L14.2499 15.0206C14.4913 15.6956 13.7099 16.2753 13.1189 15.8598L9.43132 13.5199C9.30504 13.4312 9.15444 13.3836 9.00009 13.3836C8.84574 13.3836 8.69514 13.4312 8.56886 13.5199L4.88127 15.8598C4.29105 16.2753 3.50883 15.6948 3.75032 15.0206L4.74178 10.8186C4.79321 10.6741 4.79755 10.517 4.75416 10.3698C4.71078 10.2227 4.6219 10.0931 4.50029 9.9996L1.78541 7.55696C1.23044 7.12723 1.53942 6.24977 2.24289 6.24977H6.05797C6.20818 6.25027 6.35501 6.20515 6.47902 6.12038C6.60302 6.03561 6.69837 5.91518 6.75244 5.77504L8.30487 1.47473H8.30562Z" stroke="black" stroke-width="2" stroke-linecap="round" stroke-linejoin="round"/>
</svg>
