<svg width="100" height="79" viewBox="0 0 100 79" fill="none" xmlns="http://www.w3.org/2000/svg">
<path d="M99.7143 37.8929L89 12.8929C88.7266 12.2473 88.2692 11.6965 87.685 11.3091C87.1007 10.9217 86.4153 10.7149 85.7143 10.7143H75V3.57143C75 2.62423 74.6237 1.71582 73.954 1.04605C73.2842 0.376275 72.3758 0 71.4286 0H3.57143C2.62423 0 1.71582 0.376275 1.04605 1.04605C0.376274 1.71582 0 2.62423 0 3.57143V64.2857C0 65.2329 0.376274 66.1413 1.04605 66.8111C1.71582 67.4809 2.62423 67.8571 3.57143 67.8571H11.2143C12.0367 70.8835 13.8321 73.5551 16.3236 75.4598C18.815 77.3645 21.8639 78.3964 25 78.3964C28.1361 78.3964 31.185 77.3645 33.6764 75.4598C36.1679 73.5551 37.9633 70.8835 38.7857 67.8571H61.2143C62.0367 70.8835 63.8321 73.5551 66.3236 75.4598C68.815 77.3645 71.8639 78.3964 75 78.3964C78.1361 78.3964 81.185 77.3645 83.6764 75.4598C86.1678 73.5551 87.9633 70.8835 88.7857 67.8571H96.4286C97.3758 67.8571 98.2842 67.4809 98.954 66.8111C99.6237 66.1413 100 65.2329 100 64.2857V39.2857C99.9991 38.807 99.9019 38.3333 99.7143 37.8929ZM75 17.8571H83.3571L91 35.7143H75V17.8571ZM25 71.4286C23.5873 71.4286 22.2063 71.0097 21.0316 70.2248C19.857 69.4399 18.9415 68.3244 18.4009 67.0192C17.8602 65.714 17.7188 64.2778 17.9944 62.8922C18.27 61.5066 18.9503 60.2339 19.9492 59.235C20.9482 58.236 22.2209 57.5557 23.6065 57.2801C24.9921 57.0045 26.4283 57.1459 27.7335 57.6866C29.0386 58.2272 30.1542 59.1427 30.9391 60.3174C31.7239 61.492 32.1429 62.873 32.1429 64.2857C32.1429 66.1801 31.3903 67.9969 30.0508 69.3365C28.7112 70.676 26.8944 71.4286 25 71.4286ZM61.2143 60.7143H38.7857C37.9633 57.688 36.1679 55.0164 33.6764 53.1117C31.185 51.207 28.1361 50.175 25 50.175C21.8639 50.175 18.815 51.207 16.3236 53.1117C13.8321 55.0164 12.0367 57.688 11.2143 60.7143H7.14286V7.14286H67.8571V52C66.2309 52.9439 64.8069 54.1995 63.667 55.6949C62.5271 57.1903 61.6936 58.8961 61.2143 60.7143ZM75 71.4286C73.5873 71.4286 72.2063 71.0097 71.0316 70.2248C69.857 69.4399 68.9415 68.3244 68.4009 67.0192C67.8602 65.714 67.7188 64.2778 67.9944 62.8922C68.27 61.5066 68.9503 60.2339 69.9492 59.235C70.9482 58.236 72.2209 57.5557 73.6065 57.2801C74.9921 57.0045 76.4283 57.1459 77.7335 57.6866C79.0386 58.2272 80.1542 59.1427 80.9391 60.3174C81.7239 61.492 82.1429 62.873 82.1429 64.2857C82.1429 66.1801 81.3903 67.9969 80.0508 69.3365C78.7112 70.676 76.8944 71.4286 75 71.4286ZM92.8571 60.7143H88.7857C87.9959 57.6554 86.2145 54.9447 83.7201 53.006C81.2258 51.0674 78.1591 50.0103 75 50V42.8571H92.8571V60.7143Z" fill="#F2CD85"/>
</svg>
